<svg width="128" height="128" viewBox="0 0 128 128" fill="none" xmlns="http://www.w3.org/2000/svg">
    <path d="M106 10H22C15.3726 10 10 15.3726 10 22V106C10 112.627 15.3726 118 22 118H106C112.627 118 118 112.627 118 106V22C118 15.3726 112.627 10 106 10Z"
          fill="white" stroke="#E0E0E0" stroke-width="2"/>
    <path d="M54 32C54 31.4477 54.4477 31 55 31H93.881C94.7261 31 95.1902 31.9833 94.6529 32.6357L88.8882 39.6357C88.6983 39.8664 88.4151 40 88.1163 40H55C54.4477 40 54 39.5523 54 39V32Z"
          fill="#2196F3"/>
    <path d="M38.8392 44.8039C38.9327 44.3365 39.3431 44 39.8198 44H85.7802C86.4112 44 86.8845 44.5773 86.7608 45.1961L79.1608 83.1961C79.0673 83.6635 78.6569 84 78.1802 84H32.2198C31.5888 84 31.1155 83.4227 31.2392 82.8039L38.8392 44.8039Z"
          fill="#1976D2"/>
    <path d="M83 90H39C37.8954 90 37 90.8954 37 92V96C37 97.1046 37.8954 98 39 98H83C84.1046 98 85 97.1046 85 96V92C85 90.8954 84.1046 90 83 90Z"
          fill="#0D47A1"/>
</svg>
